<?xml version="1.0" standalone="no"?><!DOCTYPE svg PUBLIC "-//W3C//DTD SVG 1.1//EN" "http://www.w3.org/Graphics/SVG/1.1/DTD/svg11.dtd"><svg t="1599876214951" class="icon" viewBox="0 0 1024 1024" version="1.1" xmlns="http://www.w3.org/2000/svg" p-id="2860" width="64" height="64" xmlns:xlink="http://www.w3.org/1999/xlink"><defs><style type="text/css"></style></defs><path d="M1015.179008 108.28661c-165.873545 365.536146-292.472798 565.345019-398.447563 628.75435-58.65546 36.129423-121.333426 55.218045-181.232207 55.218046a361.001684 361.001684 0 0 1-245.519176-98.295435c-32.472599 76.427625-55.94941 165.800409-68.01693 272.287129l-0.073136 0.585092-0.073137 0.658229c-6.216601 32.692008-31.741234 56.461365-60.776418 56.461365H54.970113l-1.462729-0.292546c-29.985958-6.362874-53.46277-36.641378-53.46277-69.040841v-1.02391l0.146273-1.023911c12.652612-103.414988 34.301011-196.371459 64.286969-276.382772 12.652612-33.789055 27.938137-64.506379 43.808754-94.346064a410.36881 410.36881 0 0 1-38.177245-128.208256 419.94969 419.94969 0 0 1 9.215197-149.856655 397.423653 397.423653 0 0 1 61.068964-134.936813A360.124046 360.124046 0 0 1 249.878842 66.89136C324.112373 22.497514 457.074501 0.044614 645.181537 0.044614c93.17588 0 201.052194 5.558373 320.776617 16.455709 18.284121 0.292546 36.348832 11.994383 48.635762 31.375551 12.286929 19.454305 12.433202 40.883294 0.585092 60.410736z m-369.558652 22.745446c-216.995947 0-301.395449 27.353045-334.014321 50.317901l-0.365683 0.292546-0.292546 0.219409a263.510751 263.510751 0 0 0-114.60487 158.633034 266.65562 266.65562 0 0 0-3.218005 117.603465 546.622079 546.622079 0 0 1 159.803217-125.575342c65.018334-33.203964 139.76382-55.071772 222.042364-64.872061a62.677967 62.677967 0 0 1 10.312245-0.877638c29.108321 0 51.561221 22.526037 57.119593 57.485276a58.43605 58.43605 0 0 1-8.922651 42.931116 67.066156 67.066156 0 0 1-44.759528 29.035184l-0.511955 0.146273h-0.511955c-145.468466 15.139252-255.612011 76.647035-333.941185 183.060619 46.880486 51.268675 111.89882 82.424817 180.720251 82.424817 42.711706 0 84.618912-12.06752 121.114017-34.886103l0.21941-0.219409 0.292546-0.146273c51.488085-29.32773 147.296878-138.227954 312.365922-488.112892-85.935368-7.459921-161.339083-7.459921-222.846866-7.459922z" p-id="2861" fill="#ffffff"></path></svg>