<?xml version="1.0" standalone="no"?><!DOCTYPE svg PUBLIC "-//W3C//DTD SVG 1.1//EN" "http://www.w3.org/Graphics/SVG/1.1/DTD/svg11.dtd"><svg t="1600269691261" class="icon" viewBox="0 0 1417 1024" version="1.1" xmlns="http://www.w3.org/2000/svg" p-id="15001" xmlns:xlink="http://www.w3.org/1999/xlink" width="177.125" height="128"><defs><style type="text/css"></style></defs><path d="M1417.401734 622.600773v-2.674746q0-2.434019-0.187232-4.894787c0-1.069899 0-2.11305-0.160485-3.182948q-0.21398-3.878383-0.534949-7.730018c0-1.203636-0.21398-2.380525-0.32097-3.584161l-0.401212-4.012119c0-0.802424-0.187232-1.631595-0.267474-2.43402a315.272385 315.272385 0 0 0-236.287118-269.641208c-20.328074-181.668791-222.966879-324.446766-470.461184-324.446766S258.647999 142.777975 238.319925 324.446766A315.272385 315.272385 0 0 0 2.032807 594.087974c0 0.802424-0.187232 1.631595-0.267474 2.43402l-0.401212 4.012119-0.32097 3.584161q-0.32097 3.851635-0.534949 7.730018c0 1.069899 0 2.11305-0.160485 3.182948q0 2.434019-0.187232 4.894787v167.733361a78.744541 78.744541 0 0 0 78.744541 78.744541h82.729913a196.941594 196.941594 0 0 0 192.929474 157.515829h2.460767a196.968342 196.968342 0 0 0 192.956222-157.515829h320.300909a196.941594 196.941594 0 0 0 192.929475 157.515829h2.460767a196.968342 196.968342 0 0 0 192.956221-157.515829h80.242399A78.744541 78.744541 0 0 0 1417.615714 787.659388v-157.515829-7.542786z m-319.418242-307.595862H745.746108V80.108662c179.074287 11.92937 326.319089 109.664612 352.344374 235.029986zM667.001567 80.376136v234.68227H319.525232c25.838052-124.188486 170.59534-221.308536 347.476335-234.68227z m-192.367777 755.749661a78.798036 78.798036 0 0 0-4.466827 14.550621 108.755198 108.755198 0 1 1 4.868039-23.698255q0 4.573817-0.401212 9.147634z m708.807857 0a78.798036 78.798036 0 0 0-4.466827 14.550621 108.755198 108.755198 0 1 1 4.868039-23.698255q-0.053495 4.654059-0.42796 9.227876z m75.213875-48.546652a196.941594 196.941594 0 0 0-385.912444 0H549.820917a196.941594 196.941594 0 0 0-385.912443 0H78.771288v-157.515829-5.59022-2.086303q0-3.049211 0.267475-6.071674 0-1.283878 0.160485-2.674747c0-1.096646 0.160485-2.166545 0.240727-3.263191l0.133737-1.497858a235.645178 235.645178 0 0 1 177.763661-207.078884 78.958521 78.958521 0 0 0 10.35127-3.396928 236.47435 236.47435 0 0 1 47.209278-4.734302h787.686135a236.447602 236.447602 0 0 1 47.209278 4.734302 78.985268 78.985268 0 0 0 10.351269 3.396928 235.645178 235.645178 0 0 1 177.763662 207.078884v1.497858q0.240727 2.888726 0.401212 5.8042c0 0.909414 0 1.79208 0.133737 2.674747s0 2.246787 0 3.370181v165.192352h-80.242399z" p-id="15002" fill="#ffffff"></path></svg>