<?xml version="1.0" standalone="no"?><!DOCTYPE svg PUBLIC "-//W3C//DTD SVG 1.1//EN" "http://www.w3.org/Graphics/SVG/1.1/DTD/svg11.dtd"><svg t="1599919953056" class="icon" viewBox="0 0 1024 1024" version="1.1" xmlns="http://www.w3.org/2000/svg" p-id="7011" width="128" height="128" xmlns:xlink="http://www.w3.org/1999/xlink"><defs><style type="text/css"></style></defs><path d="M827.733333 955.733333H199.111111V435.2c0-17.066667 11.377778-28.444444 28.444445-28.444444s28.444444 11.377778 28.444444 28.444444v463.644444h514.844444V435.2c0-17.066667 11.377778-28.444444 28.444445-28.444444s28.444444 11.377778 28.444444 28.444444v520.533333z" fill="#ffffff" p-id="7012"></path><path d="M204.8 543.288889l-173.511111-153.6c-11.377778-11.377778-17.066667-25.6-19.911111-39.822222 0-14.222222 5.688889-31.288889 14.222222-42.666667l219.022222-238.933333h119.466667c17.066667 0 34.133333 8.533333 42.666667 19.911111 14.222222 19.911111 54.044444 62.577778 105.244444 59.733333 34.133333 0 59.733333-11.377778 91.022222-54.044444 11.377778-14.222222 28.444444-25.6 48.355556-25.6h122.311111l216.177778 238.933333c19.911111 22.755556 19.911111 59.733333-2.844445 79.644444l-164.977778 156.444445-39.822222-42.666667 164.977778-156.444444-199.111111-219.022222h-96.711111c-39.822222 54.044444-76.8 76.8-136.533334 79.644444-76.8 2.844444-133.688889-54.044444-153.6-79.644444H267.377778l-201.955556 219.022222 173.511111 153.6-34.133333 45.511111z" fill="#ffffff" p-id="7013"></path></svg>