<?xml version="1.0" standalone="no"?><!DOCTYPE svg PUBLIC "-//W3C//DTD SVG 1.1//EN" "http://www.w3.org/Graphics/SVG/1.1/DTD/svg11.dtd"><svg t="1600793015958" class="icon" viewBox="0 0 1024 1024" version="1.1" xmlns="http://www.w3.org/2000/svg" p-id="14818" width="128" height="128" xmlns:xlink="http://www.w3.org/1999/xlink"><defs><style type="text/css"></style></defs><path d="M742.4 470.016 700.416 470.016c-12.4928 0-20.8896-8.3968-20.8896-20.8896s8.3968-20.8896 20.8896-20.8896l41.984 0c12.4928 0 20.8896 8.3968 20.8896 20.8896S754.8928 470.016 742.4 470.016zM742.4 386.2528 700.416 386.2528c-12.4928 0-20.8896-8.3968-20.8896-20.8896s8.3968-20.8896 20.8896-20.8896l41.984 0c12.4928 0 20.8896 8.3968 20.8896 20.8896S754.8928 386.2528 742.4 386.2528zM742.4 302.4896 700.416 302.4896c-12.4928 0-20.8896-8.3968-20.8896-20.8896s8.3968-20.8896 20.8896-20.8896l41.984 0c12.4928 0 20.8896 8.3968 20.8896 20.8896S754.8928 302.4896 742.4 302.4896zM742.4 218.7264 700.416 218.7264c-12.4928 0-20.8896-8.3968-20.8896-20.8896 0-12.4928 8.3968-20.8896 20.8896-20.8896l41.984 0c12.4928 0 20.8896 8.3968 20.8896 20.8896C763.2896 210.3296 754.8928 218.7264 742.4 218.7264zM763.2896 721.5104c0 138.24-113.0496 251.2896-251.2896 251.2896s-251.2896-113.0496-251.2896-251.2896c0-83.7632 41.984-159.1296 104.6528-203.1616L365.3632 197.8368c0-81.7152 64.9216-146.6368 146.6368-146.6368s146.6368 64.9216 146.6368 146.6368l0 320.512C721.5104 562.176 763.2896 637.7472 763.2896 721.5104zM616.6528 539.2384 616.6528 197.8368c0-58.5728-46.08-104.6528-104.6528-104.6528S407.3472 139.264 407.3472 197.8368l0 341.4016c-62.8736 35.6352-104.6528 104.6528-104.6528 182.272 0 115.3024 94.208 209.5104 209.5104 209.5104s209.5104-94.208 209.5104-209.5104C721.5104 643.8912 679.5264 576.9216 616.6528 539.2384z" p-id="14819" fill="#ffffff"></path><path d="M449.1264 497.2544 449.1264 254.3616c0-35.6352 27.2384-62.8736 62.8736-62.8736s62.8736 27.2384 62.8736 62.8736l0 242.8928" p-id="14820" fill="#ffffff"></path><path d="M381.5424 771.4816c0 0 40.3456 64.512 122.4704 64.512s135.9872-64.512 135.9872-64.512 30.5152 0 30.5152 32.3584c0 0-52.8384 75.3664-166.5024 75.3664-113.4592 0-150.528-75.3664-150.528-75.3664S352.4608 771.4816 381.5424 771.4816L381.5424 771.4816z" p-id="14821" fill="#ffffff"></path><path d="M403.8656 600.6784c-23.3472 0-42.1888 18.8416-42.1888 42.1888 0 23.3472 19.0464 42.1888 42.1888 42.1888 23.3472 0 42.1888-18.8416 42.1888-42.1888C446.0544 619.7248 427.2128 600.6784 403.8656 600.6784L403.8656 600.6784 403.8656 600.6784z" p-id="14822" fill="#ffffff"></path><path d="M620.1344 600.6784c-23.3472 0-42.1888 18.8416-42.1888 42.1888 0 23.3472 18.8416 42.1888 42.1888 42.1888 23.3472 0 42.1888-18.8416 42.1888-42.1888C662.528 619.7248 643.6864 600.6784 620.1344 600.6784L620.1344 600.6784 620.1344 600.6784z" p-id="14823" fill="#ffffff"></path></svg>