<?xml version="1.0" standalone="no"?><!DOCTYPE svg PUBLIC "-//W3C//DTD SVG 1.1//EN" "http://www.w3.org/Graphics/SVG/1.1/DTD/svg11.dtd"><svg t="1599752335286" class="icon" viewBox="0 0 1024 1024" version="1.1" xmlns="http://www.w3.org/2000/svg" p-id="14886" xmlns:xlink="http://www.w3.org/1999/xlink" width="64" height="64"><defs><style type="text/css"></style></defs><path d="M256 438.784c-70.656 0-128-57.344-128-128s57.344-128 128-128 128 57.344 128 128-57.344 128-128 128z m0-73.216c30.208 0 54.784-24.576 54.784-54.784S286.208 256 256 256s-54.784 24.576-54.784 54.784S225.792 365.568 256 365.568z m640 73.216h-73.216c0-80.896-65.536-146.432-146.432-146.432s-146.432 65.536-146.432 146.432v182.784c0 80.896 65.536 146.432 146.432 146.432s146.432-65.536 146.432-146.432H896c0 121.344-98.304 219.648-219.648 219.648s-219.648-98.304-219.648-219.648V438.784c0-121.344 98.304-219.648 219.648-219.648S896 317.44 896 438.784z" p-id="14887" fill="#FFFFFF"></path></svg>