<?xml version="1.0" standalone="no"?><!DOCTYPE svg PUBLIC "-//W3C//DTD SVG 1.1//EN" "http://www.w3.org/Graphics/SVG/1.1/DTD/svg11.dtd"><svg t="1601428935395" class="icon" viewBox="0 0 1024 1024" version="1.1" xmlns="http://www.w3.org/2000/svg" p-id="21360" width="128" height="128" xmlns:xlink="http://www.w3.org/1999/xlink"><defs><style type="text/css"></style></defs><path d="M512-150.80359506C145.2486774-150.80359506-150.80359506 145.2486774-150.80359506 512s296.05227246 662.80359506 662.80359506 662.80359506 662.80359506-296.05227246 662.80359506-662.80359506S878.7513226-150.80359506 512-150.80359506m278.37750992 941.18110498c-17.67476253 17.67476253-48.60559698 17.67476253-66.2803595 0L512 578.2803595 299.90284958 790.37750992c-17.67476253 17.67476253-48.60559698 17.67476253-66.2803595 0-17.67476253-17.67476253-17.67476253-48.60559698 0-66.2803595L445.7196405 512 233.62249008 299.90284958c-17.67476253-17.67476253-17.67476253-48.60559698 0-66.2803595 17.67476253-17.67476253 48.60559698-17.67476253 66.2803595 0L512 445.7196405l212.09715042-212.09715042c17.67476253-17.67476253 48.60559698-17.67476253 66.2803595 0 17.67476253 17.67476253 17.67476253 48.60559698 0 66.2803595L578.2803595 512l212.09715042 212.09715042c22.09345317 17.67476253 22.09345317 48.60559698 0 66.2803595m0 0z" p-id="21361" fill="#d81e06"></path></svg>