<?xml version="1.0" standalone="no"?><!DOCTYPE svg PUBLIC "-//W3C//DTD SVG 1.1//EN" "http://www.w3.org/Graphics/SVG/1.1/DTD/svg11.dtd"><svg t="1600861096978" class="icon" viewBox="0 0 1024 1024" version="1.1" xmlns="http://www.w3.org/2000/svg" p-id="1163" width="128" height="128" xmlns:xlink="http://www.w3.org/1999/xlink"><defs><style type="text/css"></style></defs><path d="M106.665244 256a85.333333 85.333333 0 1 0 85.333334-85.333333A85.333333 85.333333 0 0 0 106.665244 256zM575.998578 938.666667A85.333333 85.333333 0 1 0 661.331911 853.333333a85.333333 85.333333 0 0 0-85.333333 85.333334zM149.331911 640a42.666667 42.666667 0 0 0 21.333333 37.688889 41.955556 41.955556 0 0 0 42.666667 0A42.666667 42.666667 0 1 0 149.331911 640zM447.998578 341.333333A85.333333 85.333333 0 1 0 533.331911 256a85.333333 85.333333 0 0 0-85.333333 85.333333zM746.665244 460.8a85.333333 85.333333 0 1 0 85.333334-85.333333A85.333333 85.333333 0 0 0 746.665244 460.8zM447.998578 682.666667a43.377778 43.377778 0 1 0 42.666666-42.666667 42.666667 42.666667 0 0 0-42.666666 42.666667zM746.665244 725.333333a42.666667 42.666667 0 1 0 42.666667-42.666666 42.666667 42.666667 0 0 0-42.666667 42.666666zM319.998578 938.666667a42.666667 42.666667 0 1 0 42.666666-42.666667 42.666667 42.666667 0 0 0-42.666666 42.666667zM746.665244 85.333333A85.333333 85.333333 0 1 0 831.998578 0 85.333333 85.333333 0 0 0 746.665244 85.333333z" p-id="1164" fill="#ffffff"></path></svg>