<?xml version="1.0" standalone="no"?><!DOCTYPE svg PUBLIC "-//W3C//DTD SVG 1.1//EN" "http://www.w3.org/Graphics/SVG/1.1/DTD/svg11.dtd"><svg t="1601428740281" class="icon" viewBox="0 0 1024 1024" version="1.1" xmlns="http://www.w3.org/2000/svg" p-id="6390" width="128" height="128" xmlns:xlink="http://www.w3.org/1999/xlink"><defs><style type="text/css"></style></defs><path d="M955.238 1024H40.09a40.09 40.09 0 0 1 0-80.18h915.148a40.09 40.09 0 0 1 0 80.18zM745.472 390.298l-186.06-189.594L662.373 95.693 849.05 285.235 745.78 390.298h-0.308zM406.374 735.744l-230.246 40.704 44.749-229.683 282.931-289.28 186.06 189.542-283.494 288.768zM930.1 254.771L692.531 12.595A42.7 42.7 0 0 0 663.245 0a41.574 41.574 0 0 0-29.235 12.595L157.082 497.357a39.22 39.22 0 0 0-12.288 22.528L88.37 819.2a39.782 39.782 0 0 0 10.803 35.123 38.298 38.298 0 0 0 34.51 11.418l296.396-52.173a39.475 39.475 0 0 0 23.962-11.366l476.057-486.554a43.622 43.622 0 0 0 12.288-29.286 43.315 43.315 0 0 0-12.288-29.236v-2.355z" p-id="6391" fill="#ffffff"></path></svg>