<?xml version="1.0" standalone="no"?><!DOCTYPE svg PUBLIC "-//W3C//DTD SVG 1.1//EN" "http://www.w3.org/Graphics/SVG/1.1/DTD/svg11.dtd"><svg t="1600268698430" class="icon" viewBox="0 0 1024 1024" version="1.1" xmlns="http://www.w3.org/2000/svg" p-id="2861" width="128" height="128" xmlns:xlink="http://www.w3.org/1999/xlink"><defs><style type="text/css"></style></defs><path d="M1005.9073 506l-45.5-55.8-0.1-0.1c-14.4-17.4-35.7-28-58.2-29.2l-63.9-2.8 18.6-82.8c5.9-27-2-54.8-21.6-74.3l-75-75c-19.7-19.7-49.1-27.8-76.4-21.1l-80.4 20.7-6.7-72.4v-0.2c-2.2-23.1-14.2-44-32.7-57.5l-54.4-39.5c-20.1-14.3-45.1-18.8-69-12.2l-66.6 18.8c-25.3 7.1-45.4 26.1-54.1 51l-197.7 573.6-74.2 74.1c-65.8 65.8-63.7 175.1 4.7 243.6l5.4 5.4c34.1 34.1 79 52.9 126.3 52.9 44.7 0 86.5-17 117.4-48.1l74.8-74.8 566.6-208.3 0.2-0.1c19.6-7.4 35.5-21.9 44.6-40.7l28.5-60.4c13-27.8 8.9-61.1-10.6-84.8z m-307.4-282.3c6.9-1.7 14.2 0.3 19 5.1l75 75c4.8 4.8 6.8 11.6 5.2 18.3l-24 106.8-471 333.5-39.7-39.5 331.8-472.7 103.7-26.5z m-321.4-130.4c2.1-6.1 7.1-10.8 13.3-12.5l66.6-18.9c1.8-0.5 3.6-0.7 5.4-0.7 4.1 0 8.2 1.3 11.6 3.7l54.4 39.5c4.5 3.3 7.5 8.6 8.1 14.3l8.9 96.6-325.8 464.3-33.3-33.2 190.8-553.1z m-118 839.2c-19.5 19.5-46 30.3-74.7 30.3-31.1 0-60.9-12.5-83.5-35.2l-5.4-5.4c-44.8-44.9-47.1-116-4.7-158.2l63.9-63.9 168.7 168.1-64.3 64.3z m702.7-367.3l-28.2 59.9c-2.4 4.8-6.2 8.5-11.3 10.3l-545.7 200.7-30.4-30.3 463.7-328.4 89.2 3.8c5.7 0.3 10.9 2.9 14.5 7.3l45.4 55.7 0.1 0.1c4.9 5.8 5.9 14.1 2.7 20.9z" p-id="2862" fill="#ffffff"></path></svg>