<?xml version="1.0" standalone="no"?><!DOCTYPE svg PUBLIC "-//W3C//DTD SVG 1.1//EN" "http://www.w3.org/Graphics/SVG/1.1/DTD/svg11.dtd"><svg t="1600792871633" class="icon" viewBox="0 0 1024 1024" version="1.1" xmlns="http://www.w3.org/2000/svg" p-id="11011" width="128" height="128" xmlns:xlink="http://www.w3.org/1999/xlink"><defs><style type="text/css"></style></defs><path d="M902.656 554.6496l-361.0624-197.4784L541.5936 296.8064c62.1568-16.128 108.3392-72.0896 108.3392-139.3152 0-79.7696-64.6656-144.4352-144.4352-144.4352-79.7696 0-144.4352 64.6656-144.4352 144.4352l72.192 0c0-39.8848 32.3072-72.192 72.192-72.192 39.8848 0 72.192 32.3072 72.192 72.192s-32.3072 72.192-72.192 72.192L469.3504 229.6832l0 128.5632-361.0624 196.4032C27.5456 599.7056 0 619.3152 0 699.0336l0 108.3392c0 19.9168 16.1792 36.096 36.096 36.096L974.848 843.4688c19.9168 0 36.096-16.1792 36.096-36.096l0-108.3392C1010.944 619.3152 983.5008 594.1248 902.656 554.6496zM938.752 735.1808c0 19.9168-16.1792 36.096-36.096 36.096L108.3392 771.2768c-19.9168 0-36.096-16.1792-36.096-36.096l0-36.096c0-39.8848 17.664-37.2224 72.192-72.192l359.936-180.5312 362.1888 180.5312c72.6016 33.8432 72.192 45.8752 72.192 72.192L938.752 735.1808z" p-id="11012" fill="#ffffff"></path><path d="M938.752 915.6608c0 19.9168-16.1792 36.096-36.096 36.096L108.3392 951.7568c-19.9168 0-36.096-16.1792-36.096-36.096l0-20.3264L0 895.3344l0 56.4224C0 997.6832 24.064 1024 72.192 1024l866.5088 0c52.6848-1.1264 73.3184-34.2016 72.192-72.192l0-56.4224-72.192 0L938.7008 915.6608z" p-id="11013" fill="#ffffff"></path></svg>