<?xml version="1.0" standalone="no"?><!DOCTYPE svg PUBLIC "-//W3C//DTD SVG 1.1//EN" "http://www.w3.org/Graphics/SVG/1.1/DTD/svg11.dtd"><svg t="1599875743050" class="icon" viewBox="0 0 1024 1024" version="1.1" xmlns="http://www.w3.org/2000/svg" p-id="1221" width="64" height="64" xmlns:xlink="http://www.w3.org/1999/xlink"><defs><style type="text/css"></style></defs><path d="M856.4 0S723.1 126.3 723.1 200c0 73.6 59.7 133.3 133.3 133.3S989.7 273.6 989.7 200 856.4 0 856.4 0z m0 288.8c-49.1 0-88.9-39.8-88.9-88.9s88.9-133.3 88.9-133.3 88.9 84.2 88.9 133.3-39.9 88.9-88.9 88.9zM412 0S34.3 427.1 34.3 638.8 203.4 1022 412 1022s377.7-171.6 377.7-383.2S412 0 412 0z m0 955.4c-171.8 0-311-141.9-311-317S412 88.9 412 88.9s311 374.4 311 549.5c0.1 175-139.2 317-311 317z" fill="#ffffff" p-id="1222"></path><path d="M412 933.1c-159.5 0-288.8-128.4-288.8-286.8s150.1-78.2 288.8 0c139.3 78.5 288.8-158.4 288.8 0S571.5 933.1 412 933.1z" fill="#ffffff" p-id="1223"></path></svg>