<?xml version="1.0" standalone="no"?><!DOCTYPE svg PUBLIC "-//W3C//DTD SVG 1.1//EN" "http://www.w3.org/Graphics/SVG/1.1/DTD/svg11.dtd"><svg t="1601047012211" class="icon" viewBox="0 0 1024 1024" version="1.1" xmlns="http://www.w3.org/2000/svg" p-id="12013" width="128" height="128" xmlns:xlink="http://www.w3.org/1999/xlink"><defs><style type="text/css"></style></defs><path d="M511.097 6.622c-230.265 0-416.884 187.523-416.884 419.292 0 115.885 46.655 220.633 122.206 296.485l294.678 296.484 294.678-296.484c78.26-78.862 122.206-185.416 122.206-296.485-0.3-231.77-186.92-419.292-416.884-419.292z m0 605.61c-49.364 0-96.62-19.865-131.236-54.781s-54.18-82.173-54.18-131.537c0-49.364 19.264-96.62 54.18-131.537 34.615-34.916 81.872-54.48 131.236-54.781 49.364 0 96.62 19.865 131.236 54.781s54.18 82.173 54.18 131.537c0.3 49.364-19.264 96.621-54.18 131.537-34.916 34.916-82.173 54.48-131.236 54.782z m0 0" p-id="12014" fill="#ffffff"></path></svg>