<?xml version="1.0" standalone="no"?><!DOCTYPE svg PUBLIC "-//W3C//DTD SVG 1.1//EN" "http://www.w3.org/Graphics/SVG/1.1/DTD/svg11.dtd"><svg t="1600356103422" class="icon" viewBox="0 0 1024 1024" version="1.1" xmlns="http://www.w3.org/2000/svg" p-id="6096" width="128" height="128" xmlns:xlink="http://www.w3.org/1999/xlink"><defs><style type="text/css"></style></defs><path d="M515.1 932C286 932 99.5 745.6 99.5 516.4c0-16.5 13.4-29.9 29.9-29.9s29.9 13.4 29.9 29.9c0 196.2 159.6 355.8 355.8 355.8 118.4 0 228.7-58.6 295-156.9 9.3-13.7 27.9-17.3 41.6-8.1 13.7 9.3 17.3 27.9 8.1 41.6C782.3 863.6 653.4 932 515.1 932zM900.9 546.3c-16.5 0-29.9-13.4-29.9-29.9 0-196.2-159.6-355.8-355.8-355.8-114 0-221.9 55.2-288.7 147.8-9.7 13.4-28.3 16.5-41.8 6.7-13.4-9.7-16.4-28.4-6.7-41.8 78-108 204-172.6 337.1-172.6 229.2 0 415.7 186.5 415.7 415.7 0 16.5-13.4 29.9-29.9 29.9z" fill="#ffffff" p-id="6097"></path><path d="M53 636c-5 0-10.1-1.3-14.7-3.9-14.4-8.2-19.4-26.4-11.3-40.8l69.2-121.9c4.5-7.9 12.4-13.4 21.4-14.8 9-1.5 18.2 1.3 24.9 7.5l108.3 99.2c12.2 11.2 13 30.1 1.8 42.3-11.2 12.2-30.1 13-42.3 1.8l-80.6-73.9L79 620.8c-5.5 9.7-15.6 15.2-26 15.2zM904.4 579.5c-7.4 0-14.6-2.7-20.1-7.8l-104.1-94.6c-12.2-11.1-13.1-30.1-2-42.3 11.1-12.2 30-13.1 42.3-2l76.3 69.3 47.4-84.2c8.1-14.4 26.3-19.6 40.8-11.4 14.4 8.1 19.5 26.4 11.4 40.8l-65.8 116.9c-4.5 8-12.3 13.4-21.3 14.9-1.7 0.3-3.3 0.4-4.9 0.4z" fill="#ffffff" p-id="6098"></path></svg>