<?xml version="1.0" standalone="no"?><!DOCTYPE svg PUBLIC "-//W3C//DTD SVG 1.1//EN" "http://www.w3.org/Graphics/SVG/1.1/DTD/svg11.dtd"><svg t="1600793172664" class="icon" viewBox="0 0 1079 1024" version="1.1" xmlns="http://www.w3.org/2000/svg" p-id="18936" width="134.875" height="128" xmlns:xlink="http://www.w3.org/1999/xlink"><defs><style type="text/css"></style></defs><path d="M619.232198 863.822233a212.336285 212.336285 0 1 0 279.46893-319.736495L722.004643 391.429591a60.100845 60.100845 0 0 0-88.348242 6.010085l-195.928754 224.176152a60.100845 60.100845 0 0 0 6.010084 88.348242zM244.202926 211.127056a131.019842 131.019842 0 0 1 147.848078 33.656474l116.59564 102.171436a52.888744 52.888744 0 0 0 48.681684 11.419161 52.287735 52.287735 0 0 0 26.444372-16.227229 52.888744 52.888744 0 0 0-4.808068-75.126056L462.368993 162.445372a233.191279 233.191279 0 0 0-271.054811-45.676642 54.09076 54.09076 0 0 0 52.888744 94.358326zM0.794504 340.944882a318.534478 318.534478 0 0 1 528.286427-261.438676l439.337177 384.645408a319.435991 319.435991 0 0 1-420.705915 480.80676L109.577033 559.110949A316.731453 316.731453 0 0 1 0.794504 340.944882z" fill="#ffffff" p-id="18937"></path></svg>