<?xml version="1.0" standalone="no"?><!DOCTYPE svg PUBLIC "-//W3C//DTD SVG 1.1//EN" "http://www.w3.org/Graphics/SVG/1.1/DTD/svg11.dtd"><svg t="1599919863208" class="icon" viewBox="0 0 1024 1024" version="1.1" xmlns="http://www.w3.org/2000/svg" p-id="3800" width="128" height="128" xmlns:xlink="http://www.w3.org/1999/xlink"><defs><style type="text/css"></style></defs><path d="M512.569554 217.462797c-162.421107 0-294.548661 132.139011-294.54866 294.525746S350.159905 806.525746 512.569554 806.525746s294.537203-132.116096 294.548661-294.537203S675.002119 217.462797 512.569554 217.462797z m0 527.834225c-128.633025 0-233.285564-104.652539-233.285564-233.285565s104.652539-233.274107 233.285564-233.274106 233.274107 104.641081 233.285565 233.274106-104.629624 233.285564-233.285565 233.285565zM993.955192 481.37418h-93.733569a30.637277 30.637277 0 0 0 0 61.263097H993.955192a30.637277 30.637277 0 0 0 0-61.263097zM155.589135 511.988543a30.648735 30.648735 0 0 0-30.637277-30.614363h-93.722112a30.637277 30.637277 0 1 0 0 61.263097h93.722112a30.62582 30.62582 0 0 0 30.637277-30.648734zM512.569554 868.946047a30.648735 30.648735 0 0 0-30.637277 30.648734V993.362723a30.637277 30.637277 0 0 0 61.274555 0v-93.767942a30.648735 30.648735 0 0 0-30.637278-30.648734zM512.569554 155.019581a30.648735 30.648735 0 0 0 30.637278-30.62582V30.637277a30.637277 30.637277 0 0 0-61.274555 0v93.756484a30.637277 30.637277 0 0 0 30.637277 30.62582zM808.344165 764.430998A30.637277 30.637277 0 1 0 764.977637 807.751695L831.259106 873.998792A30.62582 30.62582 0 0 0 874.579804 830.666637zM216.817859 259.591917a30.637277 30.637277 0 0 0 43.332155-43.332155L193.880003 149.978293a30.62582 30.62582 0 0 0-43.320698 43.30924zM216.817859 764.37371L150.559305 830.666637a30.62582 30.62582 0 1 0 43.320698 43.30924l66.270011-66.281469a30.637277 30.637277 0 1 0-43.332155-43.30924zM786.655172 268.517287a30.648735 30.648735 0 0 0 21.688993-8.959742l66.281468-66.235639a30.62582 30.62582 0 1 0-43.274867-43.343613l-66.315841 66.224182a30.637277 30.637277 0 0 0 21.643162 52.314812z" p-id="3801" fill="#ffffff"></path></svg>