<?xml version="1.0" standalone="no"?><!DOCTYPE svg PUBLIC "-//W3C//DTD SVG 1.1//EN" "http://www.w3.org/Graphics/SVG/1.1/DTD/svg11.dtd"><svg t="1613290406915" class="icon" viewBox="0 0 1053 1024" version="1.1" xmlns="http://www.w3.org/2000/svg" p-id="2154" xmlns:xlink="http://www.w3.org/1999/xlink" width="131.625" height="128"><defs><style type="text/css"></style></defs><path d="M526.597349 692.444256a46.10304 46.10304 0 0 0 46.044533-46.044534V305.658473a46.044533 46.044533 0 1 0-92.03056 0v340.975275a46.10304 46.10304 0 0 0 46.044533 46.044533z m0 59.55951a64.942099 64.942099 0 1 0 45.92752 19.014579A65.41015 65.41015 0 0 0 526.597349 752.003766z" p-id="2155" fill="#ffffff"></path><path d="M961.182856 1024H92.011841a89.807317 89.807317 0 0 1-79.510191-50.198488 107.476249 107.476249 0 0 1 0-100.396975L447.087157 50.278056a88.052126 88.052126 0 0 1 159.020384 0l434.585507 823.126481a107.476249 107.476249 0 0 1 0 100.396975 89.807317 89.807317 0 0 1-79.510192 50.198488zM526.889881 77.48353a20.301719 20.301719 0 0 0-18.253996 11.701279L73.816352 912.077265a24.455673 24.455673 0 0 0 0 22.993014 20.594251 20.594251 0 0 0 18.253996 11.701279h869.112508a20.594251 20.594251 0 0 0 18.253996-11.701279 24.455673 24.455673 0 0 0 0-22.993014L544.851344 88.950784a20.301719 20.301719 0 0 0-17.961463-11.467254z" p-id="2156" fill="#ffffff"></path></svg>