<?xml version="1.0" standalone="no"?><!DOCTYPE svg PUBLIC "-//W3C//DTD SVG 1.1//EN" "http://www.w3.org/Graphics/SVG/1.1/DTD/svg11.dtd"><svg t="1599877314134" class="icon" viewBox="0 0 1024 1024" version="1.1" xmlns="http://www.w3.org/2000/svg" p-id="11439" width="128" height="128" xmlns:xlink="http://www.w3.org/1999/xlink"><defs><style type="text/css"></style></defs><path d="M785.92 275.456C785.92 51.2 523.776 51.2 523.776 51.2v449.024s261.632 0 261.632-224.256z m0 0M275.456 238.08C51.2 238.08 51.2 500.224 51.2 500.224h449.024s0-261.632-224.256-261.632z m0 0M238.08 748.544C238.08 972.8 500.224 972.8 500.224 972.8v-449.024s-261.632 0-261.632 224.256z m0 0M748.544 785.92c224.256 0 224.256-262.144 224.256-262.144h-449.024s0 261.632 224.256 261.632z m0 0" p-id="11440" fill="#ffffff"></path></svg>