<?xml version="1.0" standalone="no"?><!DOCTYPE svg PUBLIC "-//W3C//DTD SVG 1.1//EN" "http://www.w3.org/Graphics/SVG/1.1/DTD/svg11.dtd"><svg t="1603198102854" class="icon" viewBox="0 0 1024 1024" version="1.1" xmlns="http://www.w3.org/2000/svg" p-id="7663" width="128" height="128" xmlns:xlink="http://www.w3.org/1999/xlink"><defs><style type="text/css"></style></defs><path d="M752.048 823.711c82.965 0.006 152.451-61.981 160.754-143.41 8.303-81.428-47.272-155.824-128.577-172.122-14.202-110.808-110.096-196.513-226.29-196.513-125.951 0-228.105 100.732-228.105 224.994a222.597 222.597 0 0 0 5.226 48.028c-47.071-27.633-106.638-23.287-149.074 10.878-42.435 34.166-58.686 90.856-40.671 141.883 18.019 51.027 66.458 85.495 121.229 86.263h485.508z m0 0" fill="#2674FD" p-id="7664"></path><path d="M193.966 521.407a192.278 192.278 0 0 1 74.44-14.847h2.138c14.294-133.528 121.179-239.076 256.533-253.322-42.711-43.981-101.796-68.819-163.538-68.746-125.23 0-226.757 100.143-226.757 223.674-0.065 43.697 12.907 86.445 37.3 122.919a192.825 192.825 0 0 1 19.884-9.678z m0 0" fill="#FFE41F" p-id="7665"></path></svg>