<?xml version="1.0" standalone="no"?><!DOCTYPE svg PUBLIC "-//W3C//DTD SVG 1.1//EN" "http://www.w3.org/Graphics/SVG/1.1/DTD/svg11.dtd"><svg t="1599833555496" class="icon" viewBox="0 0 1024 1024" version="1.1" xmlns="http://www.w3.org/2000/svg" p-id="7951" width="128" height="128" xmlns:xlink="http://www.w3.org/1999/xlink"><defs><style type="text/css"></style></defs><path d="M716.8 1024H307.2c-168.96 0-307.2-138.24-307.2-307.2V307.2c0-168.96 138.24-307.2 307.2-307.2h409.6c168.96 0 307.2 138.24 307.2 307.2v409.6c0 168.96-138.24 307.2-307.2 307.2z" fill="#3581FB" p-id="7952"></path><path d="M512 296.96c10.24 0 20.48-10.24 20.48-20.48V204.8c0-10.24-10.24-20.48-20.48-20.48s-20.48 10.24-20.48 20.48v71.68c0 10.24 10.24 20.48 20.48 20.48zM332.8 363.52c5.12 5.12 10.24 5.12 15.36 5.12 5.12 0 10.24 0 15.36-5.12 10.24-10.24 10.24-20.48 0-30.72l-51.2-51.2c-10.24-10.24-20.48-10.24-30.72 0-10.24 10.24-10.24 20.48 0 30.72l51.2 51.2zM204.8 532.48h71.68c10.24 0 20.48-10.24 20.48-20.48s-5.12-25.6-20.48-25.6H204.8c-10.24 0-20.48 10.24-20.48 20.48s10.24 25.6 20.48 25.6zM721.92 512c0 10.24 10.24 20.48 20.48 20.48H819.2c10.24 0 20.48-10.24 20.48-20.48s-10.24-20.48-20.48-20.48h-71.68c-15.36-5.12-25.6 5.12-25.6 20.48zM675.84 368.64c5.12 0 10.24 0 15.36-5.12l51.2-51.2c10.24-10.24 10.24-20.48 0-30.72-10.24-10.24-20.48-10.24-30.72 0l-51.2 51.2c-10.24 10.24-10.24 20.48 0 30.72 5.12 0 10.24 5.12 15.36 5.12z" fill="#FFFFFF" p-id="7953"></path><path d="M742.4 599.04c-5.12-35.84-20.48-71.68-40.96-102.4 0-46.08-20.48-92.16-56.32-122.88-35.84-30.72-81.92-51.2-133.12-51.2s-97.28 20.48-133.12 56.32c-35.84 35.84-51.2 81.92-51.2 133.12v15.36c-10.24 5.12-25.6 10.24-30.72 20.48-15.36 15.36-20.48 35.84-20.48 56.32-20.48 5.12-40.96 20.48-51.2 35.84-20.48 20.48-30.72 51.2-30.72 81.92 0 66.56 56.32 122.88 122.88 122.88h409.6c30.72 0 61.44-10.24 87.04-35.84 25.6-20.48 35.84-51.2 35.84-87.04 0-30.72-10.24-61.44-35.84-87.04-25.6-15.36-51.2-30.72-71.68-35.84zM512 368.64c35.84 0 71.68 15.36 102.4 40.96 15.36 15.36 25.6 30.72 30.72 46.08-5.12 0-5.12-5.12-10.24-5.12-25.6-10.24-51.2-15.36-76.8-15.36-66.56 0-128 35.84-158.72 97.28-10.24-5.12-15.36-10.24-25.6-10.24V512C368.64 430.08 435.2 368.64 512 368.64z m256 404.48c-15.36 15.36-35.84 20.48-51.2 20.48H307.2c-40.96 0-76.8-35.84-76.8-76.8 0-35.84 30.72-71.68 66.56-76.8 5.12 0 10.24-5.12 15.36-10.24 5.12-5.12 5.12-10.24 5.12-20.48v-10.24c0-10.24 5.12-20.48 10.24-30.72 5.12-10.24 15.36-10.24 25.6-15.36H358.4c10.24 0 25.6 5.12 30.72 15.36 5.12 5.12 10.24 10.24 15.36 10.24H409.6c10.24 0 15.36-5.12 15.36-15.36 20.48-56.32 71.68-92.16 133.12-92.16 20.48 0 40.96 5.12 56.32 10.24l46.08 30.72c25.6 25.6 35.84 56.32 35.84 92.16 0 10.24 10.24 20.48 20.48 20.48 20.48 0 40.96 10.24 51.2 25.6 15.36 15.36 20.48 30.72 20.48 51.2 5.12 40.96-5.12 56.32-20.48 71.68z" fill="#FFFFFF" p-id="7954"></path></svg>